#N canvas 1020 474 844 554 12;
#X msg 87 28 open sound.wav;
#X obj 74 140 dac~;
#X msg 39 19 1;
#X msg 15 48 0;
#X obj 72 89 readsf~;
#X obj 280 196 dac~;
#X msg 257 99 1;
#X msg 233 128 0;
#X obj 288 150 readsf~;
#X msg 305 108 open \$1;
#X obj 303 68 openpanel;
#X obj 306 34 bng 15 250 50 0 empty empty empty 17 7 0 10 -262144 -1
-1;
#X obj 499 54 soundfiler;
#X floatatom 499 91 5 0 0 0 - - -;
#X obj 492 161 expr 44100/$f1;
#X obj 556 279 *~;
#X obj 558 327 tabread4~ soundData;
#X obj 564 385 dac~;
#X obj 470 214 phasor~;
#X msg 430 120 0;
#N canvas 0 50 450 250 (subpatch) 0;
#X array soundData 1.03202e+007 float 2;
#X coords 0 1 1.03202e+007 -1 200 140 1;
#X restore 123 311 graph;
#X obj 560 192 hsl 128 15 0 0.1 0 0 empty empty empty -2 -8 0 10 -262144
-1 -1 1600 1;
#X floatatom 588 236 5 0 0 0 - - -;
#X msg 497 20 read -resize sound.wav soundData;
#X connect 0 0 4 0;
#X connect 2 0 4 0;
#X connect 3 0 4 0;
#X connect 4 0 1 0;
#X connect 4 0 1 1;
#X connect 6 0 8 0;
#X connect 7 0 8 0;
#X connect 8 0 5 0;
#X connect 8 0 5 1;
#X connect 9 0 8 0;
#X connect 10 0 9 0;
#X connect 11 0 10 0;
#X connect 12 0 13 0;
#X connect 13 0 14 0;
#X connect 13 0 15 0;
#X connect 14 0 18 0;
#X connect 15 0 16 0;
#X connect 16 0 17 0;
#X connect 16 0 17 1;
#X connect 18 0 15 0;
#X connect 19 0 18 0;
#X connect 21 0 18 0;
#X connect 21 0 22 0;
#X connect 23 0 12 0;
